<svg width="169" height="53" viewBox="0 0 169 53" fill="none" xmlns="http://www.w3.org/2000/svg">
<path d="M66.448 36.364L75.34 14.8H77.572L66.448 40.972L55.324 14.8H57.556L66.448 36.364ZM76.4079 31.72C76.4079 30.04 76.7799 28.552 77.5239 27.256C78.2679 25.96 79.2759 24.94 80.5479 24.196C81.8439 23.452 83.2959 23.08 84.9039 23.08C86.5119 23.08 87.9519 23.452 89.2239 24.196C90.5199 24.94 91.5399 25.96 92.2839 27.256C93.0279 28.552 93.3999 30.04 93.3999 31.72C93.3999 33.376 93.0279 34.864 92.2839 36.184C91.5399 37.48 90.5199 38.5 89.2239 39.244C87.9519 39.988 86.5119 40.36 84.9039 40.36C83.2959 40.36 81.8439 39.988 80.5479 39.244C79.2759 38.5 78.2679 37.48 77.5239 36.184C76.7799 34.864 76.4079 33.376 76.4079 31.72ZM78.3159 31.72C78.3159 33.064 78.6039 34.252 79.1799 35.284C79.7559 36.316 80.5359 37.132 81.5199 37.732C82.5279 38.308 83.6559 38.596 84.9039 38.596C86.1519 38.596 87.2679 38.308 88.2519 37.732C89.2599 37.132 90.0519 36.316 90.6279 35.284C91.2039 34.252 91.4919 33.064 91.4919 31.72C91.4919 30.4 91.2039 29.224 90.6279 28.192C90.0519 27.136 89.2599 26.32 88.2519 25.744C87.2679 25.144 86.1519 24.844 84.9039 24.844C83.6559 24.844 82.5279 25.144 81.5199 25.744C80.5359 26.32 79.7559 27.124 79.1799 28.156C78.6039 29.188 78.3159 30.376 78.3159 31.72ZM106.15 23.44H108.31L102.586 31.468L108.67 40H106.51L101.542 32.944L96.5735 40H94.4135L100.498 31.468L94.7735 23.44H96.9335L101.542 29.992L106.15 23.44ZM111.668 15.952C111.668 15.568 111.8 15.256 112.064 15.016C112.328 14.752 112.64 14.62 113 14.62C113.384 14.62 113.696 14.752 113.936 15.016C114.2 15.256 114.332 15.568 114.332 15.952C114.332 16.312 114.2 16.624 113.936 16.888C113.696 17.152 113.384 17.284 113 17.284C112.64 17.284 112.328 17.152 112.064 16.888C111.8 16.624 111.668 16.312 111.668 15.952ZM112.064 23.44H113.936V40H112.064V23.44ZM118.775 23.44H126.551V25.204H118.775V23.44ZM126.911 14.656C126.647 14.272 126.323 13.984 125.939 13.792C125.555 13.576 125.147 13.468 124.715 13.468C124.115 13.468 123.635 13.624 123.275 13.936C122.939 14.248 122.687 14.692 122.519 15.268C122.351 15.844 122.267 16.504 122.267 17.248V40H120.395V17.032C120.395 15.904 120.551 14.944 120.863 14.152C121.199 13.336 121.691 12.712 122.339 12.28C122.987 11.824 123.815 11.596 124.823 11.596C125.351 11.596 125.807 11.68 126.191 11.848C126.599 11.992 126.947 12.184 127.235 12.424C127.547 12.664 127.787 12.904 127.955 13.144L126.911 14.656ZM130.231 15.952C130.231 15.568 130.363 15.256 130.627 15.016C130.891 14.752 131.203 14.62 131.563 14.62C131.947 14.62 132.259 14.752 132.499 15.016C132.763 15.256 132.895 15.568 132.895 15.952C132.895 16.312 132.763 16.624 132.499 16.888C132.259 17.152 131.947 17.284 131.563 17.284C131.203 17.284 130.891 17.152 130.627 16.888C130.363 16.624 130.231 16.312 130.231 15.952ZM130.627 23.44H132.499V40H130.627V23.44ZM151.234 23.44L140.434 47.92H138.346L142.594 38.308L135.898 23.44H138.13L144.142 37.552L143.278 37.48L149.146 23.44H151.234ZM154.495 35.032C154.495 35.848 154.675 36.532 155.035 37.084C155.419 37.636 155.923 38.056 156.547 38.344C157.195 38.608 157.903 38.74 158.671 38.74C159.607 38.74 160.459 38.524 161.227 38.092C162.019 37.66 162.655 37.024 163.135 36.184C163.615 35.344 163.855 34.312 163.855 33.088L164.287 34.672C164.287 35.968 163.975 37.036 163.351 37.876C162.727 38.716 161.947 39.34 161.011 39.748C160.075 40.156 159.127 40.36 158.167 40.36C157.231 40.36 156.331 40.168 155.467 39.784C154.603 39.376 153.907 38.788 153.379 38.02C152.851 37.252 152.587 36.28 152.587 35.104C152.587 33.496 153.139 32.224 154.243 31.288C155.371 30.352 156.895 29.884 158.815 29.884C159.895 29.884 160.819 30.016 161.587 30.28C162.379 30.52 163.027 30.796 163.531 31.108C164.035 31.42 164.395 31.684 164.611 31.9V33.088C163.795 32.512 162.919 32.092 161.983 31.828C161.071 31.54 160.111 31.396 159.103 31.396C158.167 31.396 157.351 31.528 156.655 31.792C155.983 32.056 155.455 32.452 155.071 32.98C154.687 33.508 154.495 34.192 154.495 35.032ZM154.567 26.464L153.631 25.06C154.255 24.628 155.059 24.196 156.043 23.764C157.051 23.308 158.287 23.08 159.751 23.08C160.999 23.08 162.067 23.284 162.955 23.692C163.843 24.1 164.527 24.688 165.007 25.456C165.487 26.224 165.727 27.16 165.727 28.264V40H163.855V28.516C163.855 28.036 163.783 27.58 163.639 27.148C163.495 26.692 163.255 26.284 162.919 25.924C162.607 25.564 162.175 25.276 161.623 25.06C161.071 24.844 160.399 24.736 159.607 24.736C158.791 24.736 158.059 24.832 157.411 25.024C156.763 25.216 156.199 25.444 155.719 25.708C155.263 25.972 154.879 26.224 154.567 26.464Z" fill="white" fill-opacity="0.9"/>
<path fill-rule="evenodd" clip-rule="evenodd" d="M13.3472 27.4148L23.5 45L33.5657 27.5656L44.8258 47.0686H2L13.3472 27.4148Z" fill="url(#paint0_linear_1_13)"/>
<g filter="url(#filter0_d_1_13)">
<path d="M23.5 45L4.01443 11.25L42.9856 11.25L23.5 45Z" fill="url(#paint1_linear_1_13)"/>
</g>
<defs>
<filter id="filter0_d_1_13" x="0.0144348" y="11.25" width="46.9711" height="41.75" filterUnits="userSpaceOnUse" color-interpolation-filters="sRGB">
<feFlood flood-opacity="0" result="BackgroundImageFix"/>
<feColorMatrix in="SourceAlpha" type="matrix" values="0 0 0 0 0 0 0 0 0 0 0 0 0 0 0 0 0 0 127 0" result="hardAlpha"/>
<feOffset dy="4"/>
<feGaussianBlur stdDeviation="2"/>
<feComposite in2="hardAlpha" operator="out"/>
<feColorMatrix type="matrix" values="0 0 0 0 0 0 0 0 0 0 0 0 0 0 0 0 0 0 0.25 0"/>
<feBlend mode="normal" in2="BackgroundImageFix" result="effect1_dropShadow_1_13"/>
<feBlend mode="normal" in="SourceGraphic" in2="effect1_dropShadow_1_13" result="shape"/>
</filter>
<linearGradient id="paint0_linear_1_13" x1="23.4129" y1="-25.0675" x2="23" y2="57" gradientUnits="userSpaceOnUse">
<stop stop-color="#D9D9D9"/>
<stop offset="1" stop-color="white" stop-opacity="0"/>
</linearGradient>
<linearGradient id="paint1_linear_1_13" x1="1" y1="45.3625" x2="43.0395" y2="45.3625" gradientUnits="userSpaceOnUse">
<stop stop-color="white"/>
<stop offset="1" stop-color="white" stop-opacity="0.14"/>
</linearGradient>
</defs>
</svg>
