<svg width="242" height="122" viewBox="0 0 242 122" fill="none" xmlns="http://www.w3.org/2000/svg">
<g id="Group 5">
<path id="A" d="M3.51562 62H1.00994L10.5341 35.8182H13.0909L22.6151 62H20.1094L11.902 38.9247H11.723L3.51562 62ZM5.31818 51.9645H18.3068V54.1122H5.31818V51.9645Z" fill="url(#paint0_linear_32_35)"/>
<path id="A_2" d="M215.516 75H213.01L222.534 48.8182H225.091L234.615 75H232.109L223.902 51.9247H223.723L215.516 75ZM217.318 64.9645H230.307V67.1122H217.318V64.9645Z" fill="url(#paint1_linear_32_35)"/>
<path id="A_3" d="M170.465 63H169.421L173.389 52.0909H174.455L178.423 63H177.379L173.959 53.3853H173.885L170.465 63ZM171.216 58.8185H176.628V59.7134H171.216V58.8185Z" fill="url(#paint2_linear_32_35)"/>
<path id="I" d="M132.912 67.5455V85H131.318V67.5455H132.912Z" fill="url(#paint3_linear_32_35)"/>
<path id="I_2" d="M173.445 72.0909V83H172.449V72.0909H173.445Z" fill="url(#paint4_linear_32_35)"/>
<path id="I_3" d="M27.9119 87.5455V105H26.3182V87.5455H27.9119Z" fill="url(#paint5_linear_32_35)"/>
<path id="I_4" d="M215.912 29.5455V47H214.318V29.5455H215.912Z" fill="url(#paint6_linear_32_35)"/>
<path id="I_5" d="M233.956 87.2727V96H233.159V87.2727H233.956Z" fill="url(#paint7_linear_32_35)"/>
<path id="Y" d="M182.023 65.8182H184.784L192.544 78.2443H192.774L200.534 65.8182H203.295L193.848 80.6605V92H191.47V80.6605L182.023 65.8182Z" fill="url(#paint8_linear_32_35)"/>
<path id="V" d="M129.688 20.0909L140.597 50.858H140.903L151.812 20.0909H155.153L142.455 55H139.045L126.347 20.0909H129.688Z" fill="url(#paint9_linear_32_35)"/>
<path id="V_2" d="M15.3672 68.8182L18.549 77.7919H18.6385L21.8203 68.8182H22.7947L19.0909 79H18.0966L14.3928 68.8182H15.3672Z" fill="url(#paint10_linear_32_35)"/>
<path id="O" d="M91.5114 64.0909C91.5114 71.3636 90.2159 77.6932 87.625 83.0795C85.0341 88.4432 81.4659 92.6023 76.9205 95.5568C72.3977 98.4886 67.1932 99.9545 61.3068 99.9545C55.4205 99.9545 50.2045 98.4886 45.6591 95.5568C41.1364 92.6023 37.5795 88.4432 34.9886 83.0795C32.4205 77.6932 31.1364 71.3636 31.1364 64.0909C31.1364 56.8182 32.4205 50.5 34.9886 45.1364C37.5795 39.75 41.1477 35.5909 45.6932 32.6591C50.2386 29.7045 55.4432 28.2273 61.3068 28.2273C67.1932 28.2273 72.3977 29.7045 76.9205 32.6591C81.4659 35.5909 85.0341 39.75 87.625 45.1364C90.2159 50.5 91.5114 56.8182 91.5114 64.0909ZM85.3068 64.0909C85.3068 57.8409 84.2614 52.4886 82.1705 48.0341C80.0795 43.5568 77.2273 40.1364 73.6136 37.7727C70 35.4091 65.8977 34.2273 61.3068 34.2273C56.7386 34.2273 52.6477 35.4091 49.0341 37.7727C45.4205 40.1364 42.5568 43.5455 40.4432 48C38.3523 52.4545 37.3068 57.8182 37.3068 64.0909C37.3068 70.3409 38.3523 75.6932 40.4432 80.1477C42.5341 84.6023 45.3864 88.0227 49 90.4091C52.6136 92.7727 56.7159 93.9545 61.3068 93.9545C65.8977 93.9545 70 92.7727 73.6136 90.4091C77.25 88.0455 80.1136 84.6364 82.2045 80.1818C84.2955 75.7045 85.3295 70.3409 85.3068 64.0909Z" fill="url(#paint11_linear_32_35)"/>
<path id="O_2" d="M217.7 95.9091C217.7 96.9697 217.511 97.8928 217.133 98.6783C216.755 99.4605 216.235 100.067 215.572 100.498C214.912 100.925 214.153 101.139 213.295 101.139C212.436 101.139 211.676 100.925 211.013 100.498C210.353 100.067 209.835 99.4605 209.457 98.6783C209.082 97.8928 208.895 96.9697 208.895 95.9091C208.895 94.8485 209.082 93.9271 209.457 93.1449C209.835 92.3594 210.355 91.7528 211.018 91.3253C211.681 90.8944 212.44 90.679 213.295 90.679C214.153 90.679 214.912 90.8944 215.572 91.3253C216.235 91.7528 216.755 92.3594 217.133 93.1449C217.511 93.9271 217.7 94.8485 217.7 95.9091ZM216.795 95.9091C216.795 94.9976 216.642 94.2171 216.337 93.5675C216.032 92.9145 215.616 92.4157 215.089 92.071C214.563 91.7263 213.964 91.554 213.295 91.554C212.629 91.554 212.032 91.7263 211.505 92.071C210.978 92.4157 210.56 92.9129 210.252 93.5625C209.947 94.2121 209.795 94.9943 209.795 95.9091C209.795 96.8205 209.947 97.6011 210.252 98.2507C210.557 98.9003 210.973 99.3991 211.5 99.7472C212.027 100.092 212.625 100.264 213.295 100.264C213.964 100.264 214.563 100.092 215.089 99.7472C215.62 99.4025 216.037 98.9053 216.342 98.2557C216.647 97.6027 216.798 96.8205 216.795 95.9091Z" fill="url(#paint12_linear_32_35)"/>
<path id="O_3" d="M167.7 44.9091C167.7 45.9697 167.511 46.8928 167.133 47.6783C166.755 48.4605 166.235 49.067 165.572 49.4979C164.912 49.9254 164.153 50.1392 163.295 50.1392C162.436 50.1392 161.676 49.9254 161.013 49.4979C160.353 49.067 159.835 48.4605 159.457 47.6783C159.082 46.8928 158.895 45.9697 158.895 44.9091C158.895 43.8485 159.082 42.9271 159.457 42.1449C159.835 41.3594 160.355 40.7528 161.018 40.3253C161.681 39.8944 162.44 39.679 163.295 39.679C164.153 39.679 164.912 39.8944 165.572 40.3253C166.235 40.7528 166.755 41.3594 167.133 42.1449C167.511 42.9271 167.7 43.8485 167.7 44.9091ZM166.795 44.9091C166.795 43.9976 166.642 43.2171 166.337 42.5675C166.032 41.9145 165.616 41.4157 165.089 41.071C164.563 40.7263 163.964 40.554 163.295 40.554C162.629 40.554 162.032 40.7263 161.505 41.071C160.978 41.4157 160.56 41.9129 160.252 42.5625C159.947 43.2121 159.795 43.9943 159.795 44.9091C159.795 45.8205 159.947 46.6011 160.252 47.2507C160.557 47.9003 160.973 48.3991 161.5 48.7472C162.027 49.0919 162.625 49.2642 163.295 49.2642C163.964 49.2642 164.563 49.0919 165.089 48.7472C165.62 48.4025 166.037 47.9053 166.342 47.2557C166.647 46.6027 166.798 45.8205 166.795 44.9091Z" fill="url(#paint13_linear_32_35)"/>
<path id="X" d="M102.886 40.8182L110.135 52.1832H110.301L117.55 40.8182H120.375L111.95 53.9091L120.375 67H117.55L110.301 55.7628H110.135L102.886 67H100.061L108.614 53.9091L100.061 40.8182H102.886Z" fill="url(#paint14_linear_32_35)"/>
<path id="X_2" d="M184.909 15.4545L197.795 35.6591H198.091L210.977 15.4545H216L201.023 38.7273L216 62H210.977L198.091 42.0227H197.795L184.909 62H179.886L195.091 38.7273L179.886 15.4545H184.909Z" fill="url(#paint15_linear_32_35)"/>
<path id="X_3" d="M234.511 44.8182L237.33 49.2379H237.395L240.214 44.8182H241.312L238.036 49.9091L241.312 55H240.214L237.395 50.63H237.33L234.511 55H233.413L236.739 49.9091L233.413 44.8182H234.511Z" fill="url(#paint16_linear_32_35)"/>
<path id="F" d="M147.477 83V56.8182H162.626V58.9659H149.868V68.8224H161.438V70.9702H149.868V83H147.477Z" fill="url(#paint17_linear_32_35)"/>
<path id="F_2" d="M97.1591 78V69.2727H102.209V69.9886H97.956V73.2741H101.812V73.9901H97.956V78H97.1591Z" fill="url(#paint18_linear_32_35)"/>
<path id="F_3" d="M3.35227 89V78.8182H9.24361V79.6534H4.28196V83.4865H8.78125V84.3217H4.28196V89H3.35227Z" fill="url(#paint19_linear_32_35)"/>
</g>
<defs>
<linearGradient id="paint0_linear_32_35" x1="12" y1="39.9836" x2="12" y2="71" gradientUnits="userSpaceOnUse">
<stop stop-color="white"/>
<stop offset="1" stop-color="#999999" stop-opacity="0"/>
</linearGradient>
<linearGradient id="paint1_linear_32_35" x1="224" y1="52.9836" x2="224" y2="84" gradientUnits="userSpaceOnUse">
<stop stop-color="white"/>
<stop offset="1" stop-color="#999999" stop-opacity="0"/>
</linearGradient>
<linearGradient id="paint2_linear_32_35" x1="174" y1="54.3115" x2="174" y2="67" gradientUnits="userSpaceOnUse">
<stop stop-color="white"/>
<stop offset="1" stop-color="#999999" stop-opacity="0"/>
</linearGradient>
<linearGradient id="paint3_linear_32_35" x1="132.5" y1="70.5574" x2="132.5" y2="91" gradientUnits="userSpaceOnUse">
<stop stop-color="white"/>
<stop offset="1" stop-color="#999999" stop-opacity="0"/>
</linearGradient>
<linearGradient id="paint4_linear_32_35" x1="173" y1="74.3115" x2="173" y2="87" gradientUnits="userSpaceOnUse">
<stop stop-color="white"/>
<stop offset="1" stop-color="#999999" stop-opacity="0"/>
</linearGradient>
<linearGradient id="paint5_linear_32_35" x1="27.5" y1="90.5574" x2="27.5" y2="111" gradientUnits="userSpaceOnUse">
<stop stop-color="white"/>
<stop offset="1" stop-color="#999999" stop-opacity="0"/>
</linearGradient>
<linearGradient id="paint6_linear_32_35" x1="215.5" y1="32.5574" x2="215.5" y2="53" gradientUnits="userSpaceOnUse">
<stop stop-color="white"/>
<stop offset="1" stop-color="#999999" stop-opacity="0"/>
</linearGradient>
<linearGradient id="paint7_linear_32_35" x1="234" y1="88.4262" x2="234" y2="99" gradientUnits="userSpaceOnUse">
<stop stop-color="white"/>
<stop offset="1" stop-color="#999999" stop-opacity="0"/>
</linearGradient>
<linearGradient id="paint8_linear_32_35" x1="193" y1="69.9836" x2="193" y2="101" gradientUnits="userSpaceOnUse">
<stop stop-color="white"/>
<stop offset="1" stop-color="#999999" stop-opacity="0"/>
</linearGradient>
<linearGradient id="paint9_linear_32_35" x1="141" y1="26.1148" x2="141" y2="67" gradientUnits="userSpaceOnUse">
<stop stop-color="white"/>
<stop offset="1" stop-color="#999999" stop-opacity="0"/>
</linearGradient>
<linearGradient id="paint10_linear_32_35" x1="19" y1="70.0164" x2="19" y2="82" gradientUnits="userSpaceOnUse">
<stop stop-color="white"/>
<stop offset="1" stop-color="#999999" stop-opacity="0"/>
</linearGradient>
<linearGradient id="paint11_linear_32_35" x1="61.5" y1="40.2295" x2="61.5" y2="122" gradientUnits="userSpaceOnUse">
<stop stop-color="white"/>
<stop offset="1" stop-color="#999999" stop-opacity="0"/>
</linearGradient>
<linearGradient id="paint12_linear_32_35" x1="213.5" y1="92.0164" x2="213.5" y2="104" gradientUnits="userSpaceOnUse">
<stop stop-color="white"/>
<stop offset="1" stop-color="#999999" stop-opacity="0"/>
</linearGradient>
<linearGradient id="paint13_linear_32_35" x1="163.5" y1="41.0164" x2="163.5" y2="53" gradientUnits="userSpaceOnUse">
<stop stop-color="white"/>
<stop offset="1" stop-color="#999999" stop-opacity="0"/>
</linearGradient>
<linearGradient id="paint14_linear_32_35" x1="110.5" y1="44.9836" x2="110.5" y2="76" gradientUnits="userSpaceOnUse">
<stop stop-color="white"/>
<stop offset="1" stop-color="#999999" stop-opacity="0"/>
</linearGradient>
<linearGradient id="paint15_linear_32_35" x1="198" y1="22.7213" x2="198" y2="77" gradientUnits="userSpaceOnUse">
<stop stop-color="white"/>
<stop offset="1" stop-color="#999999" stop-opacity="0"/>
</linearGradient>
<linearGradient id="paint16_linear_32_35" x1="237.5" y1="46.0164" x2="237.5" y2="58" gradientUnits="userSpaceOnUse">
<stop stop-color="white"/>
<stop offset="1" stop-color="#999999" stop-opacity="0"/>
</linearGradient>
<linearGradient id="paint17_linear_32_35" x1="155" y1="60.9836" x2="155" y2="92" gradientUnits="userSpaceOnUse">
<stop stop-color="white"/>
<stop offset="1" stop-color="#999999" stop-opacity="0"/>
</linearGradient>
<linearGradient id="paint18_linear_32_35" x1="100" y1="70.4262" x2="100" y2="81" gradientUnits="userSpaceOnUse">
<stop stop-color="white"/>
<stop offset="1" stop-color="#999999" stop-opacity="0"/>
</linearGradient>
<linearGradient id="paint19_linear_32_35" x1="6.5" y1="80.0164" x2="6.5" y2="92" gradientUnits="userSpaceOnUse">
<stop stop-color="white"/>
<stop offset="1" stop-color="#999999" stop-opacity="0"/>
</linearGradient>
</defs>
</svg>
